<svg width="86" height="79" viewBox="0 0 86 79" fill="none" xmlns="http://www.w3.org/2000/svg">
<rect x="1.06152" y="0.920166" width="84.3965" height="59.5917" rx="3.5" stroke="#05C2DF"/>
<line x1="0.561523" y1="50.571" x2="85.958" y2="50.571" stroke="#05C2DF"/>
<line x1="39.0723" y1="55.778" x2="46.9243" y2="55.778" stroke="#05C2DF" stroke-linecap="round"/>
<rect x="26.0557" y="61.0386" width="33.8876" height="5.15385" stroke="#05C2DF"/>
<rect x="15.6416" y="72.3995" width="54.716" height="5.15385" stroke="#05C2DF"/>
<path d="M16.9706 71.8728L25.6925 66.719H60.3067L69.0286 71.8728H16.9706Z" stroke="#05C2DF"/>
<path d="M23.8182 12.7273L31.8182 35.0909H31.9091L39.9091 12.7273H40.6818L32.3636 36H31.3636L23.0455 12.7273H23.8182ZM45.3551 36V12.7273H52.1733C53.4763 12.7273 54.6278 13.0038 55.6278 13.5568C56.6354 14.1098 57.4233 14.8826 57.9915 15.875C58.5672 16.8674 58.8551 18.0303 58.8551 19.3636C58.8551 20.6818 58.5672 21.8371 57.9915 22.8295C57.4233 23.8144 56.6354 24.5833 55.6278 25.1364C54.6278 25.6818 53.4763 25.9545 52.1733 25.9545H45.7188V25.2273H52.1733C53.34 25.2273 54.3703 24.9848 55.2642 24.5C56.1581 24.0152 56.8589 23.3333 57.3665 22.4545C57.8741 21.5758 58.1278 20.5455 58.1278 19.3636C58.1278 18.1742 57.8741 17.1364 57.3665 16.25C56.8589 15.3636 56.1581 14.678 55.2642 14.1932C54.3703 13.7008 53.34 13.4545 52.1733 13.4545H46.0824V36H45.3551ZM54.2188 25.4091L59.946 36H59.1278L53.4006 25.4091H54.2188Z" fill="#05C2DF"/>
</svg>
