<svg width="71" height="82" viewBox="0 0 71 82" fill="none" xmlns="http://www.w3.org/2000/svg">
<path fill-rule="evenodd" clip-rule="evenodd" d="M16.0534 26.427C16.0534 26.1509 16.2772 25.927 16.5534 25.927H28.5593C29.6228 25.927 30.5002 26.7762 30.5002 27.8429C30.5002 28.119 30.2763 28.3429 30.0002 28.3429C29.724 28.3429 29.5002 28.119 29.5002 27.8429C29.5002 27.3451 29.0873 26.927 28.5593 26.927H16.5534C16.2772 26.927 16.0534 26.7032 16.0534 26.427ZM40.7346 43.9157H29.5002V38.1966H34.3224C34.5985 38.1966 34.8224 38.4205 34.8224 38.6966C34.8224 38.9727 34.5985 39.1966 34.3224 39.1966H30.5002V42.9157H40.3959L40.6084 42.753V14.2134H36.6841V7.07864C36.6841 6.86541 36.5034 6.66294 36.2434 6.66294H29.0002V1.4157C29.0002 1.20247 28.8195 1 28.5595 1C28.2995 1 28.1188 1.20246 28.1188 1.4157V6.66294H20.8758C20.6157 6.66294 20.4351 6.86533 20.4351 7.07864V14.2134H15.1129C14.8528 14.2134 14.6722 14.4158 14.6722 14.6291V27.4269H1.66626C1.40619 27.4269 1.22559 27.6292 1.22559 27.8426V80.1685L9.33017 80.1686V75.0338C9.33017 73.9673 10.2073 73.1181 11.2708 73.1181H18.9546C20.0179 73.1181 20.8953 73.9673 20.8953 75.0338V80.1686H29.5002V45.7472H54.512V80.1686H69.3402V7.07864C69.3402 6.86541 69.1595 6.66294 68.8995 6.66294H42.0061C41.746 6.66294 41.5654 6.86533 41.5654 7.07864V13.2969C41.593 13.359 41.6084 13.4277 41.6084 13.5V43.247L40.7346 43.9157ZM70.3402 7.07864C70.3402 6.29655 69.695 5.66294 68.8995 5.66294H42.0061C41.2104 5.66294 40.5654 6.29655 40.5654 7.07864V13.2134H37.6841V7.07864C37.6841 6.29655 37.0389 5.66294 36.2434 5.66294H30.0002V1.4157C30.0002 0.633609 29.355 0 28.5595 0C27.7639 0 27.1188 0.633609 27.1188 1.4157V5.66294H20.8758C20.08 5.66294 19.4351 6.29655 19.4351 7.07864V13.2134H15.1129C14.3172 13.2134 13.6722 13.847 13.6722 14.6291V26.4269H1.66626C0.870544 26.4269 0.225586 27.0605 0.225586 27.8426V81.1684L13.672 81.1686V78.8091C13.672 78.027 14.3172 77.3934 15.1127 77.3934C15.9083 77.3934 16.5534 78.027 16.5534 78.8091V81.1686H70.3402V7.07864ZM53.512 80.1686V46.7472H30.5002V80.1686H53.512ZM19.8953 80.1686V75.0338C19.8953 74.5362 19.4823 74.1181 18.9546 74.1181H11.2708C10.7429 74.1181 10.3302 74.5361 10.3302 75.0338V80.1686H12.672V78.8091C12.672 77.4581 13.7816 76.3934 15.1127 76.3934C16.4438 76.3934 17.5534 77.4581 17.5534 78.8091V80.1686H19.8953ZM30.0002 36.3652C29.724 36.3652 29.5002 36.1414 29.5002 35.8652V30.6461H34.3224C34.5985 30.6461 34.8224 30.87 34.8224 31.1461C34.8224 31.4223 34.5985 31.6461 34.3224 31.6461H30.5002V35.8652C30.5002 36.1414 30.2763 36.3652 30.0002 36.3652Z" fill="#05C2DF"/>
<path fill-rule="evenodd" clip-rule="evenodd" d="M36.0205 50.5731C36.2967 50.5731 36.5205 50.797 36.5205 51.0731V77.5C36.5205 77.7761 36.2967 78 36.0205 78C35.7444 78 35.5205 77.7761 35.5205 77.5V51.0731C35.5205 50.797 35.7444 50.5731 36.0205 50.5731Z" fill="#05C2DF"/>
<path fill-rule="evenodd" clip-rule="evenodd" d="M42.126 50.5C42.4021 50.5 42.626 50.7239 42.626 51V77.4269C42.626 77.703 42.4021 77.9269 42.126 77.9269C41.8498 77.9269 41.626 77.703 41.626 77.4269V51C41.626 50.7239 41.8498 50.5 42.126 50.5Z" fill="#05C2DF"/>
<path fill-rule="evenodd" clip-rule="evenodd" d="M48.2314 50.5C48.5076 50.5 48.7314 50.7239 48.7314 51V77.4269C48.7314 77.703 48.5076 77.9269 48.2314 77.9269C47.9553 77.9269 47.7314 77.703 47.7314 77.4269V51C47.7314 50.7239 47.9553 50.5 48.2314 50.5Z" fill="#05C2DF"/>
<path d="M49.4094 17.9326C50.2052 17.9326 50.8501 17.2989 50.8501 16.5169V14.6293C50.8501 13.8472 50.205 13.2136 49.4094 13.2136C48.6139 13.2136 47.9688 13.8472 47.9688 14.6293V16.517C47.9688 17.2989 48.6137 17.9326 49.4094 17.9326Z" fill="#05C2DF"/>
<path fill-rule="evenodd" clip-rule="evenodd" d="M49.4094 17.4326C49.9373 17.4326 50.3501 17.0146 50.3501 16.5169V14.6293C50.3501 14.1317 49.9372 13.7136 49.4094 13.7136C48.8817 13.7136 48.4688 14.1317 48.4688 14.6293V16.517C48.4688 17.0145 48.8815 17.4326 49.4094 17.4326ZM50.8501 16.5169C50.8501 17.2989 50.2052 17.9326 49.4094 17.9326C48.6137 17.9326 47.9688 17.2989 47.9688 16.517V14.6293C47.9688 13.8472 48.6139 13.2136 49.4094 13.2136C50.205 13.2136 50.8501 13.8472 50.8501 14.6293V16.5169Z" fill="#05C2DF"/>
<path d="M55.1731 17.9326C55.9688 17.9326 56.6138 17.2989 56.6138 16.5169V14.6293C56.6138 13.8472 55.9687 13.2136 55.1731 13.2136C54.3775 13.2136 53.7324 13.8472 53.7324 14.6293V16.517C53.7324 17.2989 54.3774 17.9326 55.1731 17.9326Z" fill="#05C2DF"/>
<path fill-rule="evenodd" clip-rule="evenodd" d="M55.1731 17.4326C55.701 17.4326 56.1138 17.0146 56.1138 16.5169V14.6293C56.1138 14.1317 55.7009 13.7136 55.1731 13.7136C54.6453 13.7136 54.2324 14.1317 54.2324 14.6293V16.517C54.2324 17.0145 54.6452 17.4326 55.1731 17.4326ZM56.6138 16.5169C56.6138 17.2989 55.9688 17.9326 55.1731 17.9326C54.3774 17.9326 53.7324 17.2989 53.7324 16.517V14.6293C53.7324 13.8472 54.3775 13.2136 55.1731 13.2136C55.9687 13.2136 56.6138 13.8472 56.6138 14.6293V16.5169Z" fill="#05C2DF"/>
<path d="M60.9358 17.9326C61.7315 17.9326 62.3765 17.2989 62.3765 16.5169V14.6293C62.3765 13.8472 61.7313 13.2136 60.9358 13.2136C60.1402 13.2136 59.4951 13.8472 59.4951 14.6293V16.517C59.4951 17.2989 60.1401 17.9326 60.9358 17.9326Z" fill="#05C2DF"/>
<path fill-rule="evenodd" clip-rule="evenodd" d="M60.9358 17.4326C61.4637 17.4326 61.8765 17.0146 61.8765 16.5169V14.6293C61.8765 14.1317 61.4636 13.7136 60.9358 13.7136C60.408 13.7136 59.9951 14.1317 59.9951 14.6293V16.517C59.9951 17.0145 60.4079 17.4326 60.9358 17.4326ZM62.3765 16.5169C62.3765 17.2989 61.7315 17.9326 60.9358 17.9326C60.1401 17.9326 59.4951 17.2989 59.4951 16.517V14.6293C59.4951 13.8472 60.1402 13.2136 60.9358 13.2136C61.7313 13.2136 62.3765 13.8472 62.3765 14.6293V16.5169Z" fill="#05C2DF"/>
<path d="M49.4094 27.3707C50.2052 27.3707 50.8501 26.7371 50.8501 25.955V24.0673C50.8501 23.2852 50.205 22.6516 49.4094 22.6516C48.6139 22.6516 47.9688 23.2852 47.9688 24.0673V25.955C47.9688 26.7371 48.6137 27.3707 49.4094 27.3707Z" fill="#05C2DF"/>
<path fill-rule="evenodd" clip-rule="evenodd" d="M49.4094 26.8707C49.9373 26.8707 50.3501 26.4527 50.3501 25.955V24.0673C50.3501 23.5696 49.9372 23.1516 49.4094 23.1516C48.8817 23.1516 48.4688 23.5696 48.4688 24.0673V25.955C48.4688 26.4527 48.8815 26.8707 49.4094 26.8707ZM50.8501 25.955C50.8501 26.7371 50.2052 27.3707 49.4094 27.3707C48.6137 27.3707 47.9688 26.7371 47.9688 25.955V24.0673C47.9688 23.2852 48.6139 22.6516 49.4094 22.6516C50.205 22.6516 50.8501 23.2852 50.8501 24.0673V25.955Z" fill="#05C2DF"/>
<path d="M55.1731 27.3707C55.9688 27.3707 56.6138 26.7371 56.6138 25.955V24.0673C56.6138 23.2852 55.9687 22.6516 55.1731 22.6516C54.3775 22.6516 53.7324 23.2852 53.7324 24.0673V25.955C53.7324 26.7371 54.3774 27.3707 55.1731 27.3707Z" fill="#05C2DF"/>
<path fill-rule="evenodd" clip-rule="evenodd" d="M55.1731 26.8707C55.701 26.8707 56.1138 26.4527 56.1138 25.955V24.0673C56.1138 23.5696 55.7009 23.1516 55.1731 23.1516C54.6453 23.1516 54.2324 23.5696 54.2324 24.0673V25.955C54.2324 26.4527 54.6452 26.8707 55.1731 26.8707ZM56.6138 25.955C56.6138 26.7371 55.9688 27.3707 55.1731 27.3707C54.3774 27.3707 53.7324 26.7371 53.7324 25.955V24.0673C53.7324 23.2852 54.3775 22.6516 55.1731 22.6516C55.9687 22.6516 56.6138 23.2852 56.6138 24.0673V25.955Z" fill="#05C2DF"/>
<path d="M60.9358 27.3707C61.7315 27.3707 62.3765 26.7371 62.3765 25.955V24.0673C62.3765 23.2852 61.7313 22.6516 60.9358 22.6516C60.1402 22.6516 59.4951 23.2852 59.4951 24.0673V25.955C59.4951 26.7371 60.1401 27.3707 60.9358 27.3707Z" fill="#05C2DF"/>
<path fill-rule="evenodd" clip-rule="evenodd" d="M60.9358 26.8707C61.4637 26.8707 61.8765 26.4527 61.8765 25.955V24.0673C61.8765 23.5696 61.4636 23.1516 60.9358 23.1516C60.408 23.1516 59.9951 23.5696 59.9951 24.0673V25.955C59.9951 26.4527 60.4079 26.8707 60.9358 26.8707ZM62.3765 25.955C62.3765 26.7371 61.7315 27.3707 60.9358 27.3707C60.1401 27.3707 59.4951 26.7371 59.4951 25.955V24.0673C59.4951 23.2852 60.1402 22.6516 60.9358 22.6516C61.7313 22.6516 62.3765 23.2852 62.3765 24.0673V25.955Z" fill="#05C2DF"/>
<path d="M49.4094 36.8091C50.2052 36.8091 50.8501 36.1755 50.8501 35.3934V33.5057C50.8501 32.7236 50.205 32.09 49.4094 32.09C48.6139 32.09 47.9688 32.7236 47.9688 33.5057V35.3934C47.9688 36.1753 48.6137 36.8091 49.4094 36.8091Z" fill="#05C2DF"/>
<path fill-rule="evenodd" clip-rule="evenodd" d="M49.4094 36.3091C49.9373 36.3091 50.3501 35.8911 50.3501 35.3934V33.5057C50.3501 33.008 49.9372 32.59 49.4094 32.59C48.8817 32.59 48.4688 33.008 48.4688 33.5057V35.3934C48.4688 35.8909 48.8816 36.3091 49.4094 36.3091ZM50.8501 35.3934C50.8501 36.1755 50.2052 36.8091 49.4094 36.8091C48.6137 36.8091 47.9688 36.1753 47.9688 35.3934V33.5057C47.9688 32.7236 48.6139 32.09 49.4094 32.09C50.205 32.09 50.8501 32.7236 50.8501 33.5057V35.3934Z" fill="#05C2DF"/>
<path d="M55.1731 36.8091C55.9688 36.8091 56.6138 36.1755 56.6138 35.3934V33.5057C56.6138 32.7236 55.9687 32.09 55.1731 32.09C54.3775 32.09 53.7324 32.7236 53.7324 33.5057V35.3934C53.7324 36.1753 54.3774 36.8091 55.1731 36.8091Z" fill="#05C2DF"/>
<path fill-rule="evenodd" clip-rule="evenodd" d="M55.1731 36.3091C55.701 36.3091 56.1138 35.8911 56.1138 35.3934V33.5057C56.1138 33.008 55.7009 32.59 55.1731 32.59C54.6453 32.59 54.2324 33.008 54.2324 33.5057V35.3934C54.2324 35.8909 54.6452 36.3091 55.1731 36.3091ZM56.6138 35.3934C56.6138 36.1755 55.9688 36.8091 55.1731 36.8091C54.3774 36.8091 53.7324 36.1753 53.7324 35.3934V33.5057C53.7324 32.7236 54.3775 32.09 55.1731 32.09C55.9687 32.09 56.6138 32.7236 56.6138 33.5057V35.3934Z" fill="#05C2DF"/>
<path d="M60.9358 36.8091C61.7315 36.8091 62.3765 36.1755 62.3765 35.3934V33.5057C62.3765 32.7236 61.7313 32.09 60.9358 32.09C60.1402 32.09 59.4951 32.7236 59.4951 33.5057V35.3934C59.4951 36.1753 60.1401 36.8091 60.9358 36.8091Z" fill="#05C2DF"/>
<path fill-rule="evenodd" clip-rule="evenodd" d="M60.9358 36.3091C61.4637 36.3091 61.8765 35.8911 61.8765 35.3934V33.5057C61.8765 33.008 61.4636 32.59 60.9358 32.59C60.408 32.59 59.9951 33.008 59.9951 33.5057V35.3934C59.9951 35.8909 60.4079 36.3091 60.9358 36.3091ZM62.3765 35.3934C62.3765 36.1755 61.7315 36.8091 60.9358 36.8091C60.1401 36.8091 59.4951 36.1753 59.4951 35.3934V33.5057C59.4951 32.7236 60.1402 32.09 60.9358 32.09C61.7313 32.09 62.3765 32.7236 62.3765 33.5057V35.3934Z" fill="#05C2DF"/>
<path d="M9.06959 40.5843C9.86531 40.5843 10.5103 39.9507 10.5103 39.1686V37.2809C10.5103 36.4988 9.86514 35.8652 9.06959 35.8652C8.27403 35.8652 7.62891 36.4988 7.62891 37.2809V39.1686C7.62891 39.9506 8.27403 40.5843 9.06959 40.5843Z" fill="#05C2DF"/>
<path fill-rule="evenodd" clip-rule="evenodd" d="M9.06959 40.0843C9.59749 40.0843 10.0103 39.6663 10.0103 39.1686V37.2809C10.0103 36.7833 9.59736 36.3652 9.06959 36.3652C8.54182 36.3652 8.12891 36.7833 8.12891 37.2809V39.1686C8.12891 39.6662 8.54185 40.0843 9.06959 40.0843ZM10.5103 39.1686C10.5103 39.9507 9.86531 40.5843 9.06959 40.5843C8.27403 40.5843 7.62891 39.9506 7.62891 39.1686V37.2809C7.62891 36.4988 8.27403 35.8652 9.06959 35.8652C9.86514 35.8652 10.5103 36.4988 10.5103 37.2809V39.1686Z" fill="#05C2DF"/>
<path d="M14.8323 40.5843C15.628 40.5843 16.273 39.9507 16.273 39.1686V37.2809C16.273 36.4988 15.6278 35.8652 14.8323 35.8652C14.0367 35.8652 13.3916 36.4988 13.3916 37.2809V39.1686C13.3916 39.9506 14.0366 40.5843 14.8323 40.5843Z" fill="#05C2DF"/>
<path fill-rule="evenodd" clip-rule="evenodd" d="M14.8323 40.0843C15.3602 40.0843 15.773 39.6663 15.773 39.1686V37.2809C15.773 36.7833 15.36 36.3652 14.8323 36.3652C14.3045 36.3652 13.8916 36.7833 13.8916 37.2809V39.1686C13.8916 39.6662 14.3044 40.0843 14.8323 40.0843ZM16.273 39.1686C16.273 39.9507 15.628 40.5843 14.8323 40.5843C14.0366 40.5843 13.3916 39.9506 13.3916 39.1686V37.2809C13.3916 36.4988 14.0367 35.8652 14.8323 35.8652C15.6278 35.8652 16.273 36.4988 16.273 37.2809V39.1686Z" fill="#05C2DF"/>
<path d="M20.595 40.5843C21.3907 40.5843 22.0357 39.9507 22.0357 39.1686V37.2809C22.0357 36.4988 21.3905 35.8652 20.595 35.8652C19.7994 35.8652 19.1543 36.4988 19.1543 37.2809V39.1686C19.1543 39.9506 19.7993 40.5843 20.595 40.5843Z" fill="#05C2DF"/>
<path fill-rule="evenodd" clip-rule="evenodd" d="M20.595 40.0843C21.1229 40.0843 21.5357 39.6663 21.5357 39.1686V37.2809C21.5357 36.7833 21.1227 36.3652 20.595 36.3652C20.0672 36.3652 19.6543 36.7833 19.6543 37.2809V39.1686C19.6543 39.6662 20.0671 40.0843 20.595 40.0843ZM22.0357 39.1686C22.0357 39.9507 21.3907 40.5843 20.595 40.5843C19.7993 40.5843 19.1543 39.9506 19.1543 39.1686V37.2809C19.1543 36.4988 19.7994 35.8652 20.595 35.8652C21.3905 35.8652 22.0357 36.4988 22.0357 37.2809V39.1686Z" fill="#05C2DF"/>
<path d="M9.06959 50.0224C9.86531 50.0224 10.5103 49.3888 10.5103 48.6067V46.719C10.5103 45.937 9.86514 45.3033 9.06959 45.3033C8.27403 45.3033 7.62891 45.937 7.62891 46.719V48.6067C7.62891 49.3887 8.27403 50.0224 9.06959 50.0224Z" fill="#05C2DF"/>
<path fill-rule="evenodd" clip-rule="evenodd" d="M9.06959 49.5224C9.59749 49.5224 10.0103 49.1044 10.0103 48.6067V46.719C10.0103 46.2214 9.59736 45.8033 9.06959 45.8033C8.54182 45.8033 8.12891 46.2214 8.12891 46.719V48.6067C8.12891 49.1043 8.54185 49.5224 9.06959 49.5224ZM10.5103 48.6067C10.5103 49.3888 9.86531 50.0224 9.06959 50.0224C8.27403 50.0224 7.62891 49.3887 7.62891 48.6067V46.719C7.62891 45.937 8.27403 45.3033 9.06959 45.3033C9.86514 45.3033 10.5103 45.937 10.5103 46.719V48.6067Z" fill="#05C2DF"/>
<path d="M14.8323 50.0224C15.628 50.0224 16.273 49.3888 16.273 48.6067V46.719C16.273 45.937 15.6278 45.3033 14.8323 45.3033C14.0367 45.3033 13.3916 45.937 13.3916 46.719V48.6067C13.3916 49.3887 14.0366 50.0224 14.8323 50.0224Z" fill="#05C2DF"/>
<path fill-rule="evenodd" clip-rule="evenodd" d="M14.8323 49.5224C15.3602 49.5224 15.773 49.1044 15.773 48.6067V46.719C15.773 46.2214 15.36 45.8033 14.8323 45.8033C14.3045 45.8033 13.8916 46.2214 13.8916 46.719V48.6067C13.8916 49.1043 14.3044 49.5224 14.8323 49.5224ZM16.273 48.6067C16.273 49.3888 15.628 50.0224 14.8323 50.0224C14.0366 50.0224 13.3916 49.3887 13.3916 48.6067V46.719C13.3916 45.937 14.0367 45.3033 14.8323 45.3033C15.6278 45.3033 16.273 45.937 16.273 46.719V48.6067Z" fill="#05C2DF"/>
<path d="M20.595 50.0224C21.3907 50.0224 22.0357 49.3888 22.0357 48.6067V46.719C22.0357 45.937 21.3905 45.3033 20.595 45.3033C19.7994 45.3033 19.1543 45.937 19.1543 46.719V48.6067C19.1543 49.3887 19.7993 50.0224 20.595 50.0224Z" fill="#05C2DF"/>
<path fill-rule="evenodd" clip-rule="evenodd" d="M20.595 49.5224C21.1229 49.5224 21.5357 49.1044 21.5357 48.6067V46.719C21.5357 46.2214 21.1227 45.8033 20.595 45.8033C20.0672 45.8033 19.6543 46.2214 19.6543 46.719V48.6067C19.6543 49.1043 20.0671 49.5224 20.595 49.5224ZM22.0357 48.6067C22.0357 49.3888 21.3907 50.0224 20.595 50.0224C19.7993 50.0224 19.1543 49.3887 19.1543 48.6067V46.719C19.1543 45.937 19.7994 45.3033 20.595 45.3033C21.3905 45.3033 22.0357 45.937 22.0357 46.719V48.6067Z" fill="#05C2DF"/>
<path d="M9.06959 59.4607C9.86531 59.4607 10.5103 58.8271 10.5103 58.045V56.1573C10.5103 55.3752 9.86514 54.7416 9.06959 54.7416C8.27403 54.7416 7.62891 55.3752 7.62891 56.1573V58.045C7.62891 58.8271 8.27403 59.4607 9.06959 59.4607Z" fill="#05C2DF"/>
<path fill-rule="evenodd" clip-rule="evenodd" d="M9.06959 58.9607C9.59748 58.9607 10.0103 58.5427 10.0103 58.045V56.1573C10.0103 55.6596 9.59736 55.2416 9.06959 55.2416C8.54182 55.2416 8.12891 55.6596 8.12891 56.1573V58.045C8.12891 58.5426 8.54182 58.9607 9.06959 58.9607ZM10.5103 58.045C10.5103 58.8271 9.86531 59.4607 9.06959 59.4607C8.27403 59.4607 7.62891 58.8271 7.62891 58.045V56.1573C7.62891 55.3752 8.27403 54.7416 9.06959 54.7416C9.86514 54.7416 10.5103 55.3752 10.5103 56.1573V58.045Z" fill="#05C2DF"/>
<path d="M14.8323 59.4607C15.628 59.4607 16.273 58.8271 16.273 58.045V56.1573C16.273 55.3752 15.6278 54.7416 14.8323 54.7416C14.0367 54.7416 13.3916 55.3752 13.3916 56.1573V58.045C13.3916 58.8271 14.0366 59.4607 14.8323 59.4607Z" fill="#05C2DF"/>
<path fill-rule="evenodd" clip-rule="evenodd" d="M14.8323 58.9607C15.3602 58.9607 15.773 58.5427 15.773 58.045V56.1573C15.773 55.6596 15.36 55.2416 14.8323 55.2416C14.3045 55.2416 13.8916 55.6596 13.8916 56.1573V58.045C13.8916 58.5427 14.3044 58.9607 14.8323 58.9607ZM16.273 58.045C16.273 58.8271 15.628 59.4607 14.8323 59.4607C14.0366 59.4607 13.3916 58.8271 13.3916 58.045V56.1573C13.3916 55.3752 14.0367 54.7416 14.8323 54.7416C15.6278 54.7416 16.273 55.3752 16.273 56.1573V58.045Z" fill="#05C2DF"/>
<path d="M20.595 59.4607C21.3907 59.4607 22.0357 58.8271 22.0357 58.045V56.1573C22.0357 55.3752 21.3905 54.7416 20.595 54.7416C19.7994 54.7416 19.1543 55.3752 19.1543 56.1573V58.045C19.1543 58.8271 19.7993 59.4607 20.595 59.4607Z" fill="#05C2DF"/>
<path fill-rule="evenodd" clip-rule="evenodd" d="M20.595 58.9607C21.1229 58.9607 21.5357 58.5427 21.5357 58.045V56.1573C21.5357 55.6596 21.1227 55.2416 20.595 55.2416C20.0672 55.2416 19.6543 55.6596 19.6543 56.1573V58.045C19.6543 58.5427 20.0671 58.9607 20.595 58.9607ZM22.0357 58.045C22.0357 58.8271 21.3907 59.4607 20.595 59.4607C19.7993 59.4607 19.1543 58.8271 19.1543 58.045V56.1573C19.1543 55.3752 19.7994 54.7416 20.595 54.7416C21.3905 54.7416 22.0357 55.3752 22.0357 56.1573V58.045Z" fill="#05C2DF"/>
<path d="M9.06959 68.8988C9.86531 68.8988 10.5103 68.2652 10.5103 67.4831V65.5954C10.5103 64.8133 9.86514 64.1797 9.06959 64.1797C8.27403 64.1797 7.62891 64.8133 7.62891 65.5954V67.4831C7.62891 68.2652 8.27403 68.8988 9.06959 68.8988Z" fill="#05C2DF"/>
<path fill-rule="evenodd" clip-rule="evenodd" d="M9.06959 68.3988C9.59748 68.3988 10.0103 67.9808 10.0103 67.4831V65.5954C10.0103 65.0977 9.59736 64.6797 9.06959 64.6797C8.54182 64.6797 8.12891 65.0977 8.12891 65.5954V67.4831C8.12891 67.9808 8.54182 68.3988 9.06959 68.3988ZM10.5103 67.4831C10.5103 68.2652 9.86531 68.8988 9.06959 68.8988C8.27403 68.8988 7.62891 68.2652 7.62891 67.4831V65.5954C7.62891 64.8133 8.27403 64.1797 9.06959 64.1797C9.86514 64.1797 10.5103 64.8133 10.5103 65.5954V67.4831Z" fill="#05C2DF"/>
<path d="M14.8323 68.8988C15.628 68.8988 16.273 68.2652 16.273 67.4831V65.5954C16.273 64.8133 15.6278 64.1797 14.8323 64.1797C14.0367 64.1797 13.3916 64.8133 13.3916 65.5954V67.4831C13.3916 68.2652 14.0366 68.8988 14.8323 68.8988Z" fill="#05C2DF"/>
<path fill-rule="evenodd" clip-rule="evenodd" d="M14.8323 68.3988C15.3602 68.3988 15.773 67.9808 15.773 67.4831V65.5954C15.773 65.0977 15.36 64.6797 14.8323 64.6797C14.3045 64.6797 13.8916 65.0977 13.8916 65.5954V67.4831C13.8916 67.9808 14.3044 68.3988 14.8323 68.3988ZM16.273 67.4831C16.273 68.2652 15.628 68.8988 14.8323 68.8988C14.0366 68.8988 13.3916 68.2652 13.3916 67.4831V65.5954C13.3916 64.8133 14.0367 64.1797 14.8323 64.1797C15.6278 64.1797 16.273 64.8133 16.273 65.5954V67.4831Z" fill="#05C2DF"/>
<path d="M20.595 68.8988C21.3907 68.8988 22.0357 68.2652 22.0357 67.4831V65.5954C22.0357 64.8133 21.3905 64.1797 20.595 64.1797C19.7994 64.1797 19.1543 64.8133 19.1543 65.5954V67.4831C19.1543 68.2652 19.7993 68.8988 20.595 68.8988Z" fill="#05C2DF"/>
<path fill-rule="evenodd" clip-rule="evenodd" d="M20.595 68.3988C21.1229 68.3988 21.5357 67.9808 21.5357 67.4831V65.5954C21.5357 65.0977 21.1227 64.6797 20.595 64.6797C20.0672 64.6797 19.6543 65.0977 19.6543 65.5954V67.4831C19.6543 67.9808 20.0671 68.3988 20.595 68.3988ZM22.0357 67.4831C22.0357 68.2652 21.3907 68.8988 20.595 68.8988C19.7993 68.8988 19.1543 68.2652 19.1543 67.4831V65.5954C19.1543 64.8133 19.7994 64.1797 20.595 64.1797C21.3905 64.1797 22.0357 64.8133 22.0357 65.5954V67.4831Z" fill="#05C2DF"/>
<path d="M60.9358 46.2472C61.7315 46.2472 62.3765 45.6136 62.3765 44.8315V42.9438C62.3765 42.1617 61.7313 41.5281 60.9358 41.5281C60.1402 41.5281 59.4951 42.1617 59.4951 42.9438V44.8315C59.4951 45.6134 60.1401 46.2472 60.9358 46.2472Z" fill="#05C2DF"/>
<path fill-rule="evenodd" clip-rule="evenodd" d="M60.9358 45.7472C61.4637 45.7472 61.8765 45.3292 61.8765 44.8315V42.9438C61.8765 42.4461 61.4636 42.0281 60.9358 42.0281C60.408 42.0281 59.9951 42.4461 59.9951 42.9438V44.8315C59.9951 45.3291 60.4079 45.7472 60.9358 45.7472ZM62.3765 44.8315C62.3765 45.6136 61.7315 46.2472 60.9358 46.2472C60.1401 46.2472 59.4951 45.6134 59.4951 44.8315V42.9438C59.4951 42.1617 60.1402 41.5281 60.9358 41.5281C61.7313 41.5281 62.3765 42.1617 62.3765 42.9438V44.8315Z" fill="#05C2DF"/>
<path d="M60.9358 55.6854C61.7315 55.6854 62.3765 55.0518 62.3765 54.2697V52.382C62.3765 51.5999 61.7313 50.9663 60.9358 50.9663C60.1402 50.9663 59.4951 51.5999 59.4951 52.382V54.2697C59.4951 55.0516 60.1401 55.6854 60.9358 55.6854Z" fill="#05C2DF"/>
<path fill-rule="evenodd" clip-rule="evenodd" d="M60.9358 55.1854C61.4637 55.1854 61.8765 54.7674 61.8765 54.2697V52.382C61.8765 51.8843 61.4636 51.4663 60.9358 51.4663C60.408 51.4663 59.9951 51.8843 59.9951 52.382V54.2697C59.9951 54.7673 60.4079 55.1854 60.9358 55.1854ZM62.3765 54.2697C62.3765 55.0518 61.7315 55.6854 60.9358 55.6854C60.1401 55.6854 59.4951 55.0516 59.4951 54.2697V52.382C59.4951 51.5999 60.1402 50.9663 60.9358 50.9663C61.7313 50.9663 62.3765 51.5999 62.3765 52.382V54.2697Z" fill="#05C2DF"/>
<path d="M60.9358 65.1236C61.7315 65.1236 62.3765 64.49 62.3765 63.7079V61.8202C62.3765 61.0381 61.7313 60.4045 60.9358 60.4045C60.1402 60.4045 59.4951 61.0381 59.4951 61.8202V63.7079C59.4951 64.4899 60.1401 65.1236 60.9358 65.1236Z" fill="#05C2DF"/>
<path fill-rule="evenodd" clip-rule="evenodd" d="M60.9358 64.6236C61.4637 64.6236 61.8765 64.2056 61.8765 63.7079V61.8202C61.8765 61.3226 61.4636 60.9045 60.9358 60.9045C60.408 60.9045 59.9951 61.3226 59.9951 61.8202V63.7079C59.9951 64.2055 60.4079 64.6236 60.9358 64.6236ZM62.3765 63.7079C62.3765 64.49 61.7315 65.1236 60.9358 65.1236C60.1401 65.1236 59.4951 64.4899 59.4951 63.7079V61.8202C59.4951 61.0381 60.1402 60.4045 60.9358 60.4045C61.7313 60.4045 62.3765 61.0381 62.3765 61.8202V63.7079Z" fill="#05C2DF"/>
<path d="M60.9358 74.5617C61.7315 74.5617 62.3765 73.9281 62.3765 73.146V71.2583C62.3765 70.4763 61.7313 69.8427 60.9358 69.8427C60.1402 69.8427 59.4951 70.4763 59.4951 71.2583V73.146C59.4951 73.928 60.1401 74.5617 60.9358 74.5617Z" fill="#05C2DF"/>
<path fill-rule="evenodd" clip-rule="evenodd" d="M60.9358 74.0617C61.4637 74.0617 61.8765 73.6437 61.8765 73.146V71.2583C61.8765 70.7607 61.4636 70.3427 60.9358 70.3427C60.408 70.3427 59.9951 70.7607 59.9951 71.2583V73.146C59.9951 73.6436 60.4079 74.0617 60.9358 74.0617ZM62.3765 73.146C62.3765 73.9281 61.7315 74.5617 60.9358 74.5617C60.1401 74.5617 59.4951 73.928 59.4951 73.146V71.2583C59.4951 70.4763 60.1402 69.8427 60.9358 69.8427C61.7313 69.8427 62.3765 70.4763 62.3765 71.2583V73.146Z" fill="#05C2DF"/>
<path fill-rule="evenodd" clip-rule="evenodd" d="M22.291 20C22.291 19.7239 22.5149 19.5 22.791 19.5H34.3168C34.5929 19.5 34.8168 19.7239 34.8168 20C34.8168 20.2761 34.5929 20.5 34.3168 20.5H22.791C22.5149 20.5 22.291 20.2761 22.291 20Z" fill="#05C2DF"/>
<path fill-rule="evenodd" clip-rule="evenodd" d="M49.2314 42C48.6792 42 48.2314 42.4477 48.2314 43V44H50.2667V43C50.2667 42.4477 49.819 42 49.2667 42H49.2314Z" fill="#05C2DF"/>
<path fill-rule="evenodd" clip-rule="evenodd" d="M55.3369 42C54.7846 42 54.3369 42.4477 54.3369 43V44H56.3722V43C56.3722 42.4477 55.9245 42 55.3722 42H55.3369Z" fill="#05C2DF"/>
</svg>
