<svg width="110" height="82" viewBox="0 0 110 82" fill="none" xmlns="http://www.w3.org/2000/svg">
<path d="M48.5813 18.1758C51.2759 21.9705 52.7004 26.4599 52.7004 31.158C52.7004 43.3666 42.9708 53.2989 31.0114 53.2989C19.0519 53.2989 9.32227 43.3666 9.32227 31.158C9.32227 18.9494 19.0519 9.01697 31.0114 9.01697C35.6061 9.01697 39.9975 10.4666 43.7109 13.2092" stroke="#05C2DF" stroke-width="1.00668" stroke-linejoin="round"/>
<path d="M31.0121 40.0134C26.245 40.0134 22.3481 36.0503 22.3481 31.1582C22.3481 26.266 26.2448 22.3031 31.0121 22.3031C35.7793 22.3031 39.6761 26.266 39.6761 31.1582C39.6761 36.0503 35.7791 40.0134 31.0121 40.0134Z" stroke="#05C2DF" stroke-width="1.00668"/>
<path d="M108.044 1C98.9813 1 91.6081 8.52701 91.6081 17.7787V26.5216C89.4407 27.1779 87.4461 28.3646 85.7832 30.0168" stroke="#05C2DF" stroke-width="1.00668"/>
<path d="M47.6991 56.0307C51.9575 53.0439 55.4147 48.9496 57.6665 44.1564M90.4358 52.5927C88.8185 51.0853 86.9989 49.8285 85.0267 48.8569L84.6975 48.6947M82.0647 36.3498C81.6948 37.657 81.5073 39.0025 81.5073 40.3494V47.1233L79.822 46.293C73.3314 43.0956 66.1635 41.2658 58.9577 40.9423C59.9917 37.8728 60.5545 34.5817 60.5545 31.1585C60.5545 14.5293 47.3018 1.00049 31.0122 1.00049C14.7226 1.00049 1.46973 14.5293 1.46973 31.1585C1.46973 47.7876 14.7224 61.3164 31.0122 61.3164C35.9991 61.3164 40.7004 60.0466 44.8251 57.8099C46.3609 59.169 71.7325 81.4365 85.0029 81.4365C85.1651 81.4365 85.3268 81.4331 85.4854 81.4263C98.7647 80.8605 108.804 69.7445 109.225 69.2716" stroke="#05C2DF" stroke-width="1.00668"/>
</svg>
