<svg width="83" height="83" viewBox="0 0 83 83" fill="none" xmlns="http://www.w3.org/2000/svg">
<g clip-path="url(#clip0_8239_85)">
<path fill-rule="evenodd" clip-rule="evenodd" d="M77.4669 17.6C74.9675 17.6 72.9336 19.634 72.9336 22.1333C72.9336 24.6325 74.9676 26.6665 77.4669 26.6665C79.9661 26.6665 82.0001 24.6327 82.0001 22.1333C82.0001 19.634 79.9661 17.6 77.4669 17.6ZM71.9336 22.1333C71.9336 19.0817 74.4152 16.6 77.4669 16.6C80.5184 16.6 83.0001 19.0817 83.0001 22.1333C83.0001 25.185 80.5184 27.6665 77.4669 27.6665C74.4153 27.6665 71.9336 25.1848 71.9336 22.1333Z" fill="#05C2DF"/>
<path fill-rule="evenodd" clip-rule="evenodd" d="M5.53328 63.25C3.03402 63.25 1 65.284 1 67.7833C1 70.2825 3.03402 72.3166 5.53328 72.3166C8.03269 72.3166 10.0666 70.2826 10.0666 67.7833C10.0666 65.284 8.03269 63.25 5.53328 63.25ZM0 67.7833C0 64.7317 2.48173 62.25 5.53328 62.25C8.58499 62.25 11.0666 64.7317 11.0666 67.7833C11.0666 70.8348 8.58499 73.3166 5.53328 73.3166C2.48173 73.3166 0 70.8348 0 67.7833Z" fill="#05C2DF"/>
<path fill-rule="evenodd" clip-rule="evenodd" d="M63.3759 12.1832L74.202 17.5963L73.7548 18.4907L62.9287 13.0777L63.3759 12.1832Z" fill="#05C2DF"/>
<path fill-rule="evenodd" clip-rule="evenodd" d="M62.2501 72.9333C59.7507 72.9333 57.7168 74.9673 57.7168 77.4666C57.7168 79.966 59.7507 82.0001 62.2501 82.0001C64.7495 82.0001 66.7834 79.9661 66.7834 77.4668C66.7834 74.9675 64.7494 72.9333 62.2501 72.9333ZM56.7168 77.4666C56.7168 74.4151 59.1984 71.9333 62.2501 71.9333C65.3018 71.9333 67.7834 74.4152 67.7834 77.4668C67.7834 80.5183 65.3018 83.0001 62.2501 83.0001C59.1984 83.0001 56.7168 80.5182 56.7168 77.4666Z" fill="#05C2DF"/>
<path fill-rule="evenodd" clip-rule="evenodd" d="M48.5916 67.7632L58.7212 73.1638L58.2507 74.0463L48.1211 68.6456L48.5916 67.7632Z" fill="#05C2DF"/>
<path fill-rule="evenodd" clip-rule="evenodd" d="M41.5001 38.35C39.0007 38.35 36.9668 40.384 36.9668 42.8833C36.9668 45.3827 39.0008 47.4165 41.5001 47.4165C43.9995 47.4165 46.0334 45.3825 46.0334 42.8833C46.0334 40.384 43.9995 38.35 41.5001 38.35ZM35.9668 42.8833C35.9668 39.8317 38.4484 37.35 41.5001 37.35C44.5518 37.35 47.0334 39.8317 47.0334 42.8833C47.0334 45.9348 44.5518 48.4165 41.5001 48.4165C38.4485 48.4165 35.9668 45.935 35.9668 42.8833Z" fill="#05C2DF"/>
<path fill-rule="evenodd" clip-rule="evenodd" d="M30.6193 32.0826L38.5584 38.2174L37.9469 39.0087L30.0078 32.8739L30.6193 32.0826Z" fill="#05C2DF"/>
<path fill-rule="evenodd" clip-rule="evenodd" d="M66.4003 36.9667C58.5626 36.9667 52.1836 43.3457 52.1836 51.1834C52.1836 59.0211 58.5626 65.4001 66.4003 65.4001C74.238 65.4001 80.617 59.0211 80.617 51.1834C80.617 43.3457 74.238 36.9667 66.4003 36.9667ZM66.4003 35.9667C58.0103 35.9667 51.1836 42.7934 51.1836 51.1834C51.1836 59.5734 58.0103 66.4001 66.4003 66.4001C74.7903 66.4001 81.617 59.5734 81.617 51.1834C81.617 42.7934 74.7903 35.9667 66.4003 35.9667Z" fill="#05C2DF"/>
<path fill-rule="evenodd" clip-rule="evenodd" d="M66.3995 42.5C63.9001 42.5 61.8662 44.534 61.8662 47.0333C61.8662 49.5327 63.9002 51.5666 66.3995 51.5666C68.8989 51.5666 70.9328 49.5326 70.9328 47.0333C70.9328 44.534 68.8989 42.5 66.3995 42.5ZM60.8662 47.0333C60.8662 43.9817 63.3478 41.5 66.3995 41.5C69.4512 41.5 71.9328 43.9817 71.9328 47.0333C71.9328 50.0848 69.4512 52.5666 66.3995 52.5666C63.3479 52.5666 60.8662 50.085 60.8662 47.0333Z" fill="#05C2DF"/>
<path fill-rule="evenodd" clip-rule="evenodd" d="M73.5084 63.483L73.5102 63.482C73.6258 63.4154 73.6996 63.2889 73.6996 63.152V59.5055C73.6996 57.7826 72.2502 56.3333 70.4126 56.3333H62.3866C60.5489 56.3333 59.0996 57.7828 59.0996 59.504V63.1505C59.0996 63.2879 59.1727 63.4145 59.2912 63.4832C61.4586 64.7375 63.9169 65.4 66.3996 65.4C68.8825 65.4 71.3409 64.7374 73.5084 63.483ZM62.3866 55.3333H70.4126C72.7768 55.3333 74.6996 57.205 74.6996 59.5055V63.152C74.6996 63.6443 74.4368 64.1022 74.0093 64.3485C71.6909 65.6903 69.0598 66.4 66.3996 66.4C63.7394 66.4 61.1084 65.6903 58.7899 64.3485C58.3624 64.1008 58.0996 63.6443 58.0996 63.1505V59.504C58.0996 57.205 60.0226 55.3333 62.3866 55.3333Z" fill="#05C2DF"/>
<path fill-rule="evenodd" clip-rule="evenodd" d="M33.2001 53.5667C25.3624 53.5667 18.9834 59.9457 18.9834 67.7834C18.9834 75.621 25.3624 81.9999 33.2001 81.9999C41.0378 81.9999 47.4168 75.6209 47.4168 67.7832C47.4168 59.9455 41.0378 53.5667 33.2001 53.5667ZM17.9834 67.7834C17.9834 59.3934 24.8101 52.5667 33.2001 52.5667C41.5901 52.5667 48.4168 59.3932 48.4168 67.7832C48.4168 76.1732 41.5901 82.9999 33.2001 82.9999C24.8101 82.9999 17.9834 76.1733 17.9834 67.7834Z" fill="#05C2DF"/>
<path fill-rule="evenodd" clip-rule="evenodd" d="M33.2003 59.1C30.7009 59.1 28.667 61.134 28.667 63.6333C28.667 66.1327 30.701 68.1665 33.2003 68.1665C35.6995 68.1665 37.7335 66.1325 37.7335 63.6333C37.7335 61.134 35.6997 59.1 33.2003 59.1ZM27.667 63.6333C27.667 60.5817 30.1486 58.1 33.2003 58.1C36.252 58.1 38.7335 60.5817 38.7335 63.6333C38.7335 66.6848 36.2518 69.1665 33.2003 69.1665C30.1487 69.1665 27.667 66.685 27.667 63.6333Z" fill="#05C2DF"/>
<path fill-rule="evenodd" clip-rule="evenodd" d="M40.3092 80.0831L40.311 80.0821C40.4267 80.0154 40.5004 79.8891 40.5004 79.7521V76.1056C40.5004 74.3827 39.051 72.9333 37.2134 72.9333H29.1874C27.3497 72.9333 25.9004 74.3829 25.9004 76.1041V79.7506C25.9004 79.8879 25.9734 80.0145 26.0918 80.0832M26.092 80.0833C28.2594 81.3376 30.7177 82.0001 33.2004 82.0001C35.6833 82.0001 38.1417 81.3375 40.3092 80.0831M37.2134 71.9333H29.1874C26.8233 71.9333 24.9004 73.8051 24.9004 76.1041V79.7506C24.9004 80.2444 25.1632 80.7009 25.5907 80.9486C27.9091 82.2904 30.5402 83.0001 33.2004 83.0001C35.8606 83.0001 38.4916 82.2904 40.8101 80.9486C41.2376 80.7023 41.5004 80.2445 41.5004 79.7521V76.1056C41.5004 73.8051 39.5776 71.9333 37.2134 71.9333Z" fill="#05C2DF"/>
<path fill-rule="evenodd" clip-rule="evenodd" d="M15.2167 18.9833C7.37903 18.9833 1 25.3623 1 33.2C1 41.0377 7.37903 47.4167 15.2167 47.4167C23.0544 47.4167 29.4334 41.0377 29.4334 33.2C29.4333 25.3623 23.0542 18.9833 15.2167 18.9833ZM15.2167 17.9833C6.82675 17.9833 0 24.81 0 33.2C0 41.59 6.82675 48.4167 15.2167 48.4167C23.6067 48.4167 30.4334 41.59 30.4334 33.2C30.4333 24.81 23.6065 17.9833 15.2167 17.9833Z" fill="#05C2DF"/>
<path fill-rule="evenodd" clip-rule="evenodd" d="M15.2169 24.5167C12.7175 24.5167 10.6836 26.5507 10.6836 29.05C10.6836 31.5493 12.7176 33.5833 15.2169 33.5833C17.7163 33.5833 19.7502 31.5493 19.7502 29.05C19.7502 26.5507 17.7161 24.5167 15.2169 24.5167ZM9.68359 29.05C9.68359 25.9985 12.1652 23.5167 15.2169 23.5167C18.2684 23.5167 20.7502 25.9985 20.7502 29.05C20.7502 32.1016 18.2686 34.5833 15.2169 34.5833C12.1653 34.5833 9.68359 32.1016 9.68359 29.05Z" fill="#05C2DF"/>
<path fill-rule="evenodd" clip-rule="evenodd" d="M22.3258 45.4997L22.3276 45.4987C22.4432 45.4321 22.517 45.3057 22.517 45.1687V41.5222C22.517 39.7993 21.0675 38.35 19.23 38.35H11.204C9.36627 38.35 7.91699 39.7996 7.91699 41.5207V45.1672C7.91699 45.3046 7.99003 45.4313 8.10861 45.5C10.276 46.7542 12.7343 47.4167 15.217 47.4167C17.6999 47.4167 20.1583 46.7541 22.3258 45.4997ZM11.204 37.35H19.23C21.5941 37.35 23.517 39.2217 23.517 41.5222V45.1687C23.517 45.661 23.2542 46.119 22.8267 46.3652C20.5082 47.707 17.8772 48.4167 15.217 48.4167C12.5568 48.4167 9.92574 47.707 7.60725 46.3652C7.17977 46.1175 6.91699 45.661 6.91699 45.1672V41.5207C6.91699 39.2217 8.83993 37.35 11.204 37.35Z" fill="#05C2DF"/>
<path fill-rule="evenodd" clip-rule="evenodd" d="M48.4169 1C40.5792 1 34.2002 7.37903 34.2002 15.2167C34.2002 23.0544 40.5792 29.4334 48.4169 29.4334C56.2546 29.4334 62.6336 23.0544 62.6336 15.2167C62.6335 7.37903 56.2544 1 48.4169 1ZM33.2002 15.2167C33.2002 6.82675 40.0269 0 48.4169 0C56.8067 0 63.6335 6.82675 63.6336 15.2167C63.6336 23.6067 56.8069 30.4334 48.4169 30.4334C40.0269 30.4334 33.2002 23.6067 33.2002 15.2167Z" fill="#05C2DF"/>
<path fill-rule="evenodd" clip-rule="evenodd" d="M48.4161 6.53333C45.9167 6.53333 43.8828 8.56732 43.8828 11.0666C43.8828 13.5659 45.9168 15.5999 48.4161 15.5999C50.9154 15.5999 52.9494 13.566 52.9494 11.0668C52.9494 8.56747 50.9153 6.53333 48.4161 6.53333ZM42.8828 11.0666C42.8828 8.01506 45.3644 5.53333 48.4161 5.53333C51.4676 5.53333 53.9494 8.01522 53.9494 11.0668C53.9494 14.1183 51.4676 16.5999 48.4161 16.5999C45.3645 16.5999 42.8828 14.1182 42.8828 11.0666Z" fill="#05C2DF"/>
<path fill-rule="evenodd" clip-rule="evenodd" d="M55.5251 27.5164L55.5268 27.5154C55.6424 27.4488 55.7162 27.3224 55.7162 27.1854V23.5389C55.7162 21.8159 54.2667 20.3667 52.4292 20.3667H44.4032C42.5655 20.3667 41.1162 21.8163 41.1162 23.5374V27.1839C41.1162 27.3211 41.1891 27.4476 41.3074 27.5164C43.4749 28.7708 45.9333 29.4334 48.4162 29.4334C50.8991 29.4334 53.3575 28.7708 55.5251 27.5164ZM40.8065 28.3819C40.379 28.1342 40.1162 27.6777 40.1162 27.1839V23.5374C40.1162 21.2384 42.0392 19.3667 44.4032 19.3667H52.4292C54.7933 19.3667 56.7162 21.2383 56.7162 23.5389V27.1854C56.7162 27.6777 56.4534 28.1357 56.026 28.3819C53.7075 29.7237 51.0764 30.4334 48.4162 30.4334C45.756 30.4334 43.125 29.7237 40.8065 28.3819Z" fill="#05C2DF"/>
<path fill-rule="evenodd" clip-rule="evenodd" d="M24.2236 21.2644L33.0884 14.047L33.7198 14.8225L24.855 22.0399L24.2236 21.2644Z" fill="#05C2DF"/>
<path fill-rule="evenodd" clip-rule="evenodd" d="M58.8622 26.0459L66.0795 35.7894L65.276 36.3846L58.0586 26.6411L58.8622 26.0459Z" fill="#05C2DF"/>
<path fill-rule="evenodd" clip-rule="evenodd" d="M46.2451 60.2316L51.8072 55.9011L52.4215 56.6902L46.8594 61.0206L46.2451 60.2316Z" fill="#05C2DF"/>
<path fill-rule="evenodd" clip-rule="evenodd" d="M10.8262 66.9827H18.3444V67.9827H10.8262V66.9827Z" fill="#05C2DF"/>
<path fill-rule="evenodd" clip-rule="evenodd" d="M19.7502 5.53328V5.53323C19.7503 3.03402 17.7163 1 15.217 1C12.7176 1 10.6836 3.03404 10.6836 5.53328C10.6836 8.03269 12.7176 10.0666 15.2169 10.0666C17.7163 10.0666 19.7502 8.03256 19.7502 5.53328ZM20.7502 5.53328C20.7503 2.48173 18.2686 0 15.217 0C12.1653 0 9.68359 2.48173 9.68359 5.53328C9.68359 8.58499 12.1653 11.0666 15.2169 11.0666C18.2686 11.0666 20.7502 8.58483 20.7502 5.53328Z" fill="#05C2DF"/>
<path fill-rule="evenodd" clip-rule="evenodd" d="M13.5732 18.0434V10.826H14.5732V18.0434H13.5732Z" fill="#05C2DF"/>
</g>
<defs>
<clipPath id="clip0_8239_85">
<rect width="83" height="83" fill="white"/>
</clipPath>
</defs>
</svg>
