<svg width="78" height="18" viewBox="0 0 78 18" fill="none" xmlns="http://www.w3.org/2000/svg">
<path d="M33 6V1H49.5V6H43.5V12.5L38.5 17V6H33Z" fill="white"/>
<path d="M5 1H0V17L16.5 1H10L5 6V1Z" fill="white"/>
<path d="M9.5 10L6.5 13L10.5 17H16.5L9.5 10Z" fill="white"/>
<path d="M18 17V1H25L34.5 11V17L24 6H22.5V9H25L28.5 12.5H22.5L18 17Z" fill="white"/>
<path fill-rule="evenodd" clip-rule="evenodd" d="M52.5358 1.18584L53.4642 0.814453L58.9797 14.6031L64.0306 0.828021L64.9694 1.17228L59.0203 17.3972L52.5358 1.18584Z" fill="#05C2DF"/>
<path fill-rule="evenodd" clip-rule="evenodd" d="M66.5 1H72.5C75.2988 1 77.1172 3.24415 77.1873 5.48438C77.2227 6.61809 76.8128 7.76489 75.8573 8.62217C75.0754 9.32374 73.9612 9.80245 72.5011 9.95102L77.8904 16.6877L77.1096 17.3123L71.2597 10H67.5V17H66.5V1ZM67.5 9H71.5C73.2887 9 74.4696 8.52379 75.1895 7.87783C75.9059 7.23511 76.2148 6.38191 76.1877 5.51562C76.1328 3.75585 74.7012 2 72.5 2H67.5V9Z" fill="#05C2DF"/>
</svg>
